<svg width="219" height="48" viewBox="0 0 219 48" fill="none" xmlns="http://www.w3.org/2000/svg">
<g clip-path="url(#clip0_60_57)">
<path d="M0.715576 19.9786L2.12445 20.081C3.58549 18.4596 4.15948 13.6634 12.7692 14.6021C12.4562 35.1523 3.27241 37.32 3.8464 41.5359C4.05512 43.9254 5.98579 45.3933 8.073 45.4786C14.6651 45.2568 14.3694 36.5349 16.4219 14.5509H24.9272C24.475 22.2999 23.2401 30.0489 23.1009 37.6443C23.2053 42.6965 26.3361 45.3933 30.4584 45.4274C37.2418 45.6493 39.3812 37.8833 39.3812 34.572H37.9202C37.781 37.3029 36.4417 39.2658 33.5892 39.3853C25.8143 39.4877 30.0931 25.9696 30.1453 14.6533L39.3812 14.7045L39.329 8.9184C0.940979 8.73592 5.81352 7.99741 0.715576 19.9786Z" fill="url(#paint0_linear_60_57)"/>
</g>
<path d="M56.7053 13.3272H64.2589C67.0678 13.3272 69.2441 14.0357 70.7877 15.4528C72.3567 16.8446 73.1411 18.9197 73.1411 21.678C73.1411 23.6518 72.711 25.284 71.8506 26.5746C70.9902 27.8652 69.8894 28.8141 68.5482 29.4215C67.207 30.0035 65.8152 30.2945 64.3728 30.2945H61.9435V38H56.7053V13.3272ZM63.7655 27.8652C65.0307 27.8652 65.967 27.435 66.5744 26.5746C67.1817 25.6889 67.4854 24.1326 67.4854 21.9057C67.4854 19.6535 67.1817 18.072 66.5744 17.161C65.967 16.25 65.0307 15.7945 63.7655 15.7945H61.9435V27.8652H63.7655ZM82.7902 38.4175C81.0188 38.4175 79.6017 37.9747 78.5389 37.089C77.4761 36.2033 76.9447 34.9887 76.9447 33.445C76.9447 31.2181 77.9822 29.6112 80.0572 28.6243C82.1576 27.6121 84.5996 26.9921 87.3832 26.7644V25.6636C87.3832 23.9428 87.1428 22.7661 86.662 22.1335C86.1812 21.4755 85.3714 21.1466 84.2326 21.1466C83.7012 21.1466 83.0939 21.2478 82.4106 21.4502C81.7527 21.6527 81.1707 21.8678 80.6646 22.0955C80.1838 22.3233 79.8675 22.4751 79.7156 22.551L79.2222 20.1217C79.374 20.0458 79.7283 19.8939 80.285 19.6662C80.867 19.4131 81.5882 19.1727 82.4486 18.945C83.3343 18.7172 84.22 18.6034 85.1057 18.6034C87.4844 18.6034 89.2937 19.1095 90.5337 20.1217C91.799 21.1086 92.4316 22.8167 92.4316 25.2461V33.8626C92.4316 35.2037 92.6973 35.8743 93.2287 35.8743C93.4312 35.8743 93.6716 35.8364 93.9499 35.7605C94.2283 35.6846 94.4181 35.6339 94.5193 35.6086L94.6711 37.5825C94.5446 37.6331 94.2409 37.7216 93.7601 37.8482C93.2793 37.9747 92.7226 38.1012 92.09 38.2277C91.4827 38.3543 90.9386 38.4175 90.4578 38.4175C89.7239 38.4175 89.1546 38.2404 88.7497 37.8861C88.3448 37.5065 88.0791 36.8992 87.9525 36.0641H87.7628C87.7628 36.14 87.5856 36.3805 87.2313 36.7853C86.9024 37.1649 86.371 37.5318 85.6371 37.8861C84.9032 38.2404 83.9543 38.4175 82.7902 38.4175ZM84.4604 35.8743C85.0677 35.8743 85.5865 35.7225 86.0167 35.4188C86.4722 35.1152 86.8138 34.7862 87.0415 34.4319C87.2693 34.0523 87.3832 33.8373 87.3832 33.7866V28.7762C85.6877 28.9533 84.3971 29.3582 83.5114 29.9908C82.6511 30.5982 82.2209 31.5345 82.2209 32.7997C82.2209 33.8119 82.4233 34.5838 82.8282 35.1152C83.2331 35.6213 83.7771 35.8743 84.4604 35.8743ZM100.518 47.9071C99.9365 47.9071 99.4177 47.8565 98.9622 47.7553C98.532 47.6793 98.203 47.5908 97.9753 47.4895C97.7475 47.4136 97.6084 47.363 97.5577 47.3377L97.9753 44.377C98.0765 44.4276 98.3296 44.5035 98.7344 44.6047C99.1393 44.7313 99.5442 44.7945 99.9491 44.7945C101.088 44.7945 102.012 44.339 102.72 43.428C103.429 42.5423 104.213 40.986 105.073 38.7592L96.9884 19.0209H103.1L107.731 32.534L111.64 19.0209H114.791L108.224 38.4175C107.44 40.5685 106.693 42.3146 105.984 43.6558C105.301 44.997 104.517 46.0345 103.631 46.7683C102.745 47.5275 101.708 47.9071 100.518 47.9071ZM121.716 16.174C120.957 16.174 120.286 15.921 119.704 15.4149C119.122 14.8329 118.831 14.1117 118.831 13.2513C118.831 12.4162 119.122 11.7076 119.704 11.1256C120.236 10.6195 120.906 10.3664 121.716 10.3664C122.501 10.3664 123.146 10.6068 123.652 11.0876C124.209 11.6697 124.487 12.3909 124.487 13.2513C124.487 14.137 124.209 14.8708 123.652 15.4528C123.095 15.9336 122.45 16.174 121.716 16.174ZM119.173 38V19.0209H124.221V38H119.173ZM130.672 19.0209H134.733L135.378 20.5772H135.53C135.53 20.5266 135.733 20.3368 136.137 20.0078C136.568 19.6789 137.175 19.3752 137.959 19.0968C138.744 18.7932 139.718 18.6413 140.882 18.6413C142.831 18.6413 144.286 19.1727 145.247 20.2356C146.234 21.2731 146.728 22.9053 146.728 25.1322V38H141.679V26.157C141.679 24.4616 141.49 23.3102 141.11 22.7029C140.756 22.0955 140.098 21.7919 139.136 21.7919C138.478 21.7919 137.896 21.8931 137.39 22.0955C136.884 22.298 136.479 22.5257 136.175 22.7788C135.872 23.0065 135.72 23.133 135.72 23.1584V38H130.672V19.0209ZM158.954 38.4175C157.157 38.4175 155.828 37.9747 154.968 37.089C154.108 36.2033 153.677 34.7103 153.677 32.6099V21.9437H151.855V19.6662L153.715 19.1348L156.145 12.7199H158.726V19.0209H162.901V21.9437H158.726V31.3194C158.726 32.5087 158.776 33.4197 158.878 34.0523C159.004 34.6597 159.194 35.0899 159.447 35.3429C159.7 35.5707 160.054 35.6846 160.51 35.6846C161.016 35.6846 161.472 35.6339 161.876 35.5327C162.281 35.4315 162.484 35.3682 162.484 35.3429L162.787 37.5065C162.787 37.5318 162.648 37.6204 162.37 37.7723C162.091 37.9241 161.661 38.0633 161.079 38.1898C160.523 38.3416 159.814 38.4175 158.954 38.4175ZM175.979 38.4175C173.17 38.4175 170.982 37.6457 169.413 36.1021C167.869 34.5332 167.097 32.1165 167.097 28.8521C167.097 25.5624 167.856 23.0445 169.375 21.2984C170.893 19.527 172.943 18.6413 175.524 18.6413C177.877 18.6413 179.699 19.3878 180.99 20.8809C182.306 22.3486 182.964 24.4616 182.964 27.2199C182.964 27.8525 182.913 28.3839 182.812 28.8141C182.736 29.2443 182.685 29.51 182.66 29.6112H172.449C172.475 31.8887 172.804 33.5083 173.436 34.4699C174.094 35.4062 175.144 35.8743 176.587 35.8743C177.447 35.8743 178.206 35.6972 178.864 35.3429C179.522 34.9633 180.041 34.5585 180.42 34.1283C180.8 33.6728 180.99 33.4197 180.99 33.3691L182.698 34.6976C182.698 34.7989 182.432 35.1658 181.901 35.7984C181.395 36.4311 180.636 37.0257 179.623 37.5825C178.636 38.1392 177.422 38.4175 175.979 38.4175ZM178.257 27.144V26.2709C178.257 24.3477 178.054 23.0065 177.649 22.2474C177.245 21.4629 176.536 21.0707 175.524 21.0707C174.815 21.0707 174.246 21.2478 173.816 21.6021C173.411 21.9563 173.095 22.5763 172.867 23.462C172.639 24.3224 172.5 25.5497 172.449 27.144H178.257ZM188.15 38V9.6832L193.198 9.37953V38H188.15ZM199.686 38V9.6832L204.734 9.37953V38H199.686ZM213.765 16.174C213.005 16.174 212.335 15.921 211.753 15.4149C211.171 14.8329 210.88 14.1117 210.88 13.2513C210.88 12.4162 211.171 11.7076 211.753 11.1256C212.284 10.6195 212.955 10.3664 213.765 10.3664C214.549 10.3664 215.194 10.6068 215.7 11.0876C216.257 11.6697 216.536 12.3909 216.536 13.2513C216.536 14.137 216.257 14.8708 215.7 15.4528C215.144 15.9336 214.498 16.174 213.765 16.174ZM211.221 38V19.0209H216.27V38H211.221Z" fill="black"/>
<defs>
<linearGradient id="paint0_linear_60_57" x1="20.0484" y1="8.84229" x2="20.0484" y2="45.4786" gradientUnits="userSpaceOnUse">
<stop stop-color="#A5A5FF"/>
<stop offset="0.0001" stop-color="#9696E7"/>
<stop offset="1" stop-color="#636399"/>
</linearGradient>
<clipPath id="clip0_60_57">
<rect width="40.1873" height="37.9547" fill="white" transform="translate(0 8.14014)"/>
</clipPath>
</defs>
</svg>
